<svg width="12" height="11" viewBox="0 0 12 11" fill="none" xmlns="http://www.w3.org/2000/svg">
<path d="M5.57256 0.463527C5.72223 0.00287151 6.37394 0.00287008 6.52361 0.463525L7.49673 3.45849C7.56367 3.6645 7.75565 3.80398 7.97226 3.80398H11.1213C11.6057 3.80398 11.8071 4.42378 11.4152 4.70849L8.86758 6.55947C8.69233 6.68679 8.619 6.91248 8.68594 7.11849L9.65906 10.1134C9.80874 10.5741 9.2815 10.9572 8.88964 10.6725L6.34198 8.82148C6.16673 8.69416 5.92943 8.69416 5.75419 8.82148L3.20653 10.6725C2.81467 10.9572 2.28743 10.5741 2.43711 10.1134L3.41023 7.11849C3.47716 6.91248 3.40383 6.68679 3.22859 6.55947L0.680927 4.70849C0.28907 4.42379 0.490457 3.80398 0.974819 3.80398H4.12391C4.34052 3.80398 4.5325 3.6645 4.59943 3.45849L5.57256 0.463527Z" fill="#F6C644"/>
</svg>
